<svg width="160" height="162" viewBox="0 0 160 162" fill="none" xmlns="http://www.w3.org/2000/svg">
<g clip-path="url(#clip0_1604_656)">
<path d="M160 80.9989C160 125.203 124.183 161.037 80 161.037C35.8172 161.037 0 125.203 0 80.9989C0 36.7952 35.8172 0.960938 80 0.960938C124.183 0.960938 160 36.7952 160 80.9989Z" fill="white"/>
<path d="M80 116.018C99.33 116.018 115 100.34 115 81.001C115 61.6618 99.33 45.9844 80 45.9844C60.67 45.9844 45 61.6618 45 81.001C45 100.34 60.67 116.018 80 116.018Z" fill="#FFD700"/>
<mask id="mask0_1604_656" style="mask-type:luminance" maskUnits="userSpaceOnUse" x="60" y="60" width="40" height="42">
<path d="M100 60.9922H60V101.011H100V60.9922Z" fill="white"/>
</mask>
<g mask="url(#mask0_1604_656)">
<path d="M80.7608 78.3684C80.3219 78.7407 79.6782 78.7407 79.2393 78.3684C75.0799 74.8408 72.9412 71.4173 72.9412 68.0544C72.9412 64.154 76.1016 60.9922 80 60.9922C83.8984 60.9922 87.0588 64.154 87.0588 68.0544C87.0588 71.4173 84.9202 74.8408 80.7608 78.3684ZM80.7608 83.635C84.9202 87.1626 87.0588 90.5861 87.0588 93.949C87.0588 97.8494 83.8985 101.011 80 101.011C76.1015 101.011 72.9412 97.8494 72.9412 93.949C72.9412 90.5861 75.0798 87.1626 79.2392 83.635C79.6782 83.2627 80.3218 83.2627 80.7608 83.635ZM82.632 81.7628C82.2599 81.3237 82.2599 80.6797 82.632 80.2406C86.158 76.0793 89.5799 73.9396 92.9412 73.9396C96.8397 73.9395 100 77.1013 100 81.0017C100 84.902 96.8397 88.0639 92.9412 88.0639C89.5798 88.0639 86.158 85.9242 82.632 81.7628ZM77.368 81.7628C73.842 85.9242 70.4201 88.0639 67.0588 88.0639C63.1603 88.0639 60 84.902 60 81.0017C60 77.1013 63.1603 73.9395 67.0588 73.9395C70.4202 73.9395 73.842 76.0792 77.368 80.2405C77.7401 80.6797 77.7401 81.3236 77.368 81.7628Z" fill="white"/>
</g>
<path d="M81.3863 23.7609C81.4178 23.6685 81.4483 23.5536 81.4776 23.4163C81.5114 23.2792 81.5425 23.1084 81.5708 22.9039C81.5991 22.6994 81.6248 22.4567 81.648 22.1758C81.6715 21.8904 81.6928 21.558 81.7121 21.1784L81.9336 16.8175C81.9529 16.4379 81.9414 16.1351 81.8992 15.9091C81.8569 15.6831 81.8009 15.5079 81.7312 15.3835C81.6659 15.2592 81.5944 15.1683 81.5168 15.1106C81.4436 15.0532 81.3814 15.0008 81.3301 14.9534L81.3315 14.9266L83.4261 14.2607L83.4248 14.2875C83.3932 14.38 83.3605 14.4947 83.3267 14.6318C83.2974 14.7691 83.2684 14.9422 83.2399 15.1512C83.2116 15.3557 83.1858 15.6007 83.1623 15.886C83.1391 16.1669 83.1179 16.4972 83.0986 16.8767L82.8771 21.2376C82.8579 21.6172 82.8454 21.9501 82.8398 22.2364C82.8345 22.5182 82.8355 22.7622 82.8429 22.9686C82.8504 23.1749 82.8617 23.3479 82.877 23.4874C82.8967 23.6272 82.9176 23.7447 82.9397 23.8398L82.9383 23.8666L81.3849 23.7877L81.3863 23.7609Z" fill="#FFB81C"/>
<path d="M85.9941 25.1448C86.6559 25.0984 87.2718 25.0031 87.842 24.8587C88.4166 24.7151 88.9259 24.5169 89.37 24.264C89.8149 24.0066 90.1817 23.6901 90.4705 23.3143C90.7593 22.9386 90.9485 22.4975 91.038 21.9911C91.1267 21.4892 91.1009 21.0441 90.9607 20.6561C90.8205 20.268 90.5942 19.9305 90.2818 19.6437C89.9738 19.3576 89.5915 19.1197 89.1348 18.9299C88.6826 18.741 88.1888 18.5946 87.6534 18.4908L89.1914 14.7578L90.4523 14.9808C90.8264 15.047 91.1521 15.1046 91.4293 15.1536C91.7118 15.1991 91.9542 15.2397 92.1567 15.2755C92.3599 15.3069 92.5302 15.3325 92.6674 15.3522C92.8046 15.3719 92.9202 15.3856 93.0142 15.3931L93.0406 15.3978L92.7873 16.831L92.7609 16.8264C92.6731 16.7836 92.563 16.7391 92.4304 16.693C92.2979 16.6468 92.1319 16.5971 91.9326 16.5436C91.7333 16.4902 91.4935 16.4342 91.2134 16.3755C90.9377 16.3177 90.6128 16.2557 90.2387 16.1895L89.2616 16.0167L88.6491 17.4409C89.004 17.5127 89.3499 17.6102 89.6867 17.7334C90.0243 17.8521 90.3406 18.0012 90.6357 18.1805C90.9316 18.3555 91.1974 18.5592 91.4332 18.7916C91.6742 19.0204 91.8715 19.2778 92.0252 19.5638C92.1797 19.8454 92.2835 20.1567 92.3368 20.4976C92.3952 20.8349 92.3897 21.1994 92.3205 21.5913C92.231 22.0977 92.073 22.542 91.8466 22.9243C91.6202 23.3065 91.3458 23.6394 91.0234 23.923C90.7009 24.2065 90.3411 24.4448 89.9439 24.6379C89.5467 24.831 89.1307 24.989 88.6959 25.1119C88.2656 25.2356 87.8267 25.3305 87.3793 25.3967C86.9319 25.4629 86.4972 25.5086 86.0751 25.5338L85.9941 25.1448Z" fill="#FFB81C"/>
<path d="M100.346 22.8716L99.2704 25.9842L98.6178 25.7585L99.6932 22.6459L96.582 21.57L96.8076 20.9171L99.9187 21.993L100.994 18.8804L101.647 19.1061L100.571 22.2187L103.682 23.2945L103.457 23.9475L100.346 22.8716Z" fill="#FFB81C"/>
<path d="M113.464 29.0215L112.404 30.7078C112.202 31.0296 112.028 31.314 111.883 31.561C111.741 31.8042 111.623 32.0177 111.528 32.2013C111.434 32.3849 111.36 32.5414 111.305 32.6706C111.254 32.8023 111.214 32.915 111.187 33.0087L111.173 33.0314L109.811 32.1745L109.825 32.1518C109.898 32.0866 109.98 32.0012 110.073 31.8958C110.17 31.7927 110.278 31.6577 110.399 31.4907C110.524 31.3261 110.665 31.127 110.822 30.8933C110.986 30.6582 111.169 30.3797 111.371 30.058L112.36 28.4852L111.993 23.4369C111.979 23.2649 111.96 23.1022 111.935 22.9491C111.914 22.7983 111.888 22.6631 111.857 22.5436C111.829 22.4203 111.8 22.315 111.771 22.2277C111.741 22.1404 111.716 22.0747 111.697 22.0305L111.711 22.0078L113.431 23.0897C113.376 23.1768 113.321 23.3432 113.267 23.5891C113.219 23.8335 113.207 24.1508 113.231 24.541L113.49 28.2615L116.986 26.7448C117.109 26.6906 117.234 26.6346 117.361 26.5766C117.487 26.5187 117.605 26.4609 117.715 26.4034C117.825 26.3459 117.919 26.2888 117.997 26.2322C118.079 26.1779 118.136 26.1242 118.169 26.0712L119.276 26.7675L119.262 26.7902C119.133 26.8098 118.954 26.8474 118.723 26.9032C118.495 26.9552 118.226 27.0473 117.916 27.1797L113.464 29.0215Z" fill="#FFB81C"/>
<path d="M117.126 37.6633C116.75 37.3398 116.448 36.9773 116.221 36.5759C115.994 36.1745 115.857 35.7553 115.808 35.3183C115.762 34.8778 115.812 34.4285 115.958 33.9704C116.11 33.5117 116.373 33.0654 116.746 32.6313C117.075 32.2481 117.444 31.9491 117.852 31.7343C118.263 31.5161 118.686 31.3842 119.12 31.3387C119.554 31.2932 119.98 31.3323 120.398 31.456C120.82 31.5827 121.207 31.7975 121.559 32.1006C121.909 32.4008 122.18 32.7402 122.373 33.1187C122.57 33.4939 122.677 33.8901 122.696 34.3072C122.721 34.7238 122.651 35.1557 122.485 35.6026C122.325 36.0491 122.066 36.4921 121.706 36.9315C121.329 36.5954 120.95 36.261 120.57 35.9282C120.19 35.5955 119.793 35.2514 119.379 34.8958C119.084 34.6423 118.795 34.3962 118.511 34.1577C118.23 33.9221 117.975 33.7116 117.745 33.526C117.462 33.8962 117.243 34.2616 117.086 34.6222C116.933 34.9858 116.847 35.3363 116.828 35.6739C116.816 36.0109 116.875 36.3299 117.005 36.6308C117.139 36.9346 117.348 37.2089 117.633 37.4537C117.83 37.6227 118.033 37.7595 118.244 37.8641C118.461 37.9681 118.676 38.0407 118.888 38.0817C119.1 38.1227 119.309 38.137 119.514 38.1247C119.722 38.109 119.92 38.0702 120.109 38.0083L120.144 38.0913L118.99 38.6733C118.725 38.6109 118.437 38.5043 118.124 38.3535C117.815 38.1994 117.482 37.9693 117.126 37.6633ZM119.115 33.9788C119.454 34.2703 119.793 34.5617 120.132 34.8531C120.477 35.1441 120.793 35.404 121.08 35.6328C121.303 35.3115 121.473 34.9975 121.589 34.6906C121.705 34.3838 121.767 34.0921 121.775 33.8157C121.782 33.5392 121.734 33.2797 121.63 33.037C121.526 32.7944 121.366 32.5798 121.149 32.3933C120.952 32.2243 120.733 32.1124 120.491 32.0578C120.256 32.0027 120.007 32.004 119.745 32.0619C119.483 32.1198 119.213 32.2353 118.935 32.4086C118.659 32.5785 118.385 32.8085 118.112 33.0987C118.259 33.2366 118.417 33.3784 118.586 33.5242C118.756 33.6699 118.932 33.8214 119.115 33.9788Z" fill="#FFB81C"/>
<path d="M122.345 39.5464C122.611 39.3141 122.888 39.1665 123.178 39.1037C123.47 39.0443 123.764 39.0452 124.061 39.1065C124.358 39.1678 124.65 39.2779 124.937 39.4368C125.227 39.5927 125.505 39.7747 125.769 39.9828C126.037 40.1879 126.286 40.4043 126.514 40.6322C126.746 40.857 126.952 41.069 127.132 41.2682L127.389 41.0432C127.611 40.8491 127.778 40.6528 127.89 40.4543C128.001 40.2559 128.064 40.0589 128.077 39.8633C128.094 39.6648 128.063 39.4694 127.984 39.277C127.911 39.0852 127.798 38.9016 127.646 38.7265C127.54 38.6052 127.425 38.4945 127.302 38.3943C127.179 38.294 127.038 38.2005 126.879 38.1137C126.723 38.0302 126.543 37.9531 126.339 37.8822C126.138 37.8147 125.904 37.7545 125.639 37.7017L125.625 37.6247L126.637 37.3462C126.784 37.4132 126.92 37.4874 127.045 37.5687C127.172 37.6471 127.295 37.733 127.412 37.8265C127.529 37.92 127.641 38.0211 127.748 38.1297C127.861 38.2388 127.973 38.3573 128.085 38.4853C128.393 38.8389 128.613 39.1786 128.743 39.5043C128.879 39.8305 128.941 40.1389 128.927 40.4295C128.92 40.7206 128.848 40.9914 128.711 41.242C128.577 41.4896 128.395 41.7134 128.166 41.9134L126.52 43.3516C126.234 43.6016 125.986 43.8241 125.777 44.0191C125.573 44.2145 125.399 44.3849 125.253 44.5303C125.11 44.679 124.993 44.8074 124.904 44.9155C124.817 45.0268 124.747 45.1235 124.694 45.2055L124.674 45.2231L123.699 44.1066L123.719 44.0889C123.788 44.0587 123.859 44.0176 123.932 43.9655C124.008 43.9168 124.096 43.8546 124.196 43.779C124.074 43.7612 123.938 43.7314 123.789 43.6896C123.643 43.6512 123.488 43.5932 123.326 43.5156C123.169 43.4385 123.01 43.3374 122.847 43.2123C122.684 43.0935 122.525 42.9448 122.369 42.7663C121.858 42.1803 121.599 41.6081 121.592 41.0499C121.589 40.4888 121.84 39.9876 122.345 39.5464ZM126.738 41.6123C126.467 41.3087 126.191 41.0302 125.91 40.7767C125.633 40.5202 125.349 40.3266 125.056 40.1959C124.767 40.0686 124.471 40.0216 124.168 40.055C123.871 40.0887 123.568 40.2409 123.258 40.5115C122.861 40.8585 122.645 41.2226 122.609 41.6037C122.574 41.9848 122.709 42.3504 123.015 42.7007C123.156 42.8624 123.306 42.9898 123.464 43.0829C123.629 43.1765 123.789 43.2444 123.945 43.2866C124.106 43.3292 124.259 43.3506 124.401 43.3508C124.547 43.348 124.675 43.3313 124.785 43.3007C124.918 43.1956 125.063 43.0755 125.218 42.9402C125.376 42.802 125.554 42.6461 125.753 42.4726L126.738 41.6123Z" fill="#FFB81C"/>
<path d="M129.786 44.9928C130.099 44.7778 130.368 44.5851 130.593 44.4147C130.824 44.2455 131.019 44.0954 131.178 43.9643C131.34 43.8369 131.471 43.7229 131.57 43.6224C131.671 43.5256 131.753 43.4395 131.816 43.3643L131.838 43.3491L132.714 44.6269L132.691 44.6421C132.586 44.6707 132.466 44.7157 132.329 44.7771C132.194 44.8421 132.028 44.9348 131.828 45.0552C132.036 45.1133 132.246 45.1781 132.458 45.2498C132.669 45.3214 132.871 45.4056 133.062 45.5023C133.253 45.599 133.428 45.709 133.588 45.8321C133.751 45.959 133.888 46.1035 134 46.2658C134.068 46.3653 134.122 46.4558 134.161 46.5371C134.204 46.616 134.237 46.6912 134.259 46.7628C134.285 46.832 134.303 46.8981 134.314 46.9612C134.328 47.0218 134.341 47.0805 134.353 47.1374L133.111 47.5909L133.069 47.4817C133.201 47.3262 133.273 47.1547 133.285 46.9672C133.301 46.7773 133.237 46.5772 133.093 46.367C133.015 46.2527 132.913 46.1467 132.786 46.0492C132.66 45.9516 132.515 45.8636 132.353 45.7851C132.195 45.7041 132.023 45.6319 131.839 45.5686C131.658 45.5027 131.475 45.4444 131.288 45.3935C131.176 45.4595 131.057 45.5354 130.932 45.6214C130.807 45.7074 130.674 45.7985 130.534 45.8946L129.108 46.8733C128.794 47.0882 128.522 47.2803 128.291 47.4496C128.064 47.6163 127.871 47.7652 127.711 47.8963C127.552 48.0273 127.422 48.1413 127.32 48.2381C127.218 48.335 127.136 48.421 127.074 48.4962L127.052 48.5114L126.176 47.2336L126.198 47.2185C126.291 47.1875 126.401 47.142 126.527 47.0821C126.657 47.0258 126.81 46.945 126.987 46.8397C127.167 46.7382 127.375 46.6114 127.613 46.4594C127.856 46.3086 128.135 46.1258 128.448 45.9108L129.786 44.9928Z" fill="#FFB81C"/>
<path d="M135.581 51.9788L135.525 51.9022C135.601 51.8263 135.674 51.7295 135.743 51.6117C135.814 51.498 135.867 51.3686 135.901 51.2237C135.937 51.0828 135.947 50.9286 135.928 50.761C135.916 50.5952 135.863 50.4235 135.769 50.2459C135.704 50.1234 135.624 50.0164 135.53 49.9247C135.438 49.837 135.334 49.7706 135.219 49.7254C135.11 49.6821 134.992 49.6641 134.864 49.6712C134.736 49.6784 134.603 49.7187 134.465 49.7922C134.271 49.895 134.117 50.0528 134.003 50.2657C133.894 50.4805 133.801 50.7248 133.724 50.9988C133.651 51.2706 133.583 51.5574 133.52 51.859C133.46 52.1645 133.383 52.4585 133.29 52.7408C133.197 53.0232 133.074 53.2813 132.92 53.5152C132.772 53.7509 132.573 53.9349 132.325 54.0671C132.123 54.1741 131.907 54.2435 131.676 54.2752C131.449 54.3049 131.22 54.2845 130.991 54.2142C130.763 54.1479 130.54 54.0234 130.322 53.8408C130.109 53.66 129.918 53.4097 129.748 53.0899C129.647 52.9003 129.571 52.7132 129.518 52.5285C129.468 52.3477 129.431 52.1746 129.409 52.0091C129.393 51.8455 129.388 51.6916 129.392 51.5474C129.402 51.4052 129.415 51.2768 129.43 51.1624L130.587 50.6236L130.637 50.7184C130.472 50.8565 130.334 51.006 130.222 51.1668C130.11 51.3276 130.029 51.4946 129.98 51.6679C129.936 51.843 129.923 52.0224 129.939 52.206C129.96 52.3875 130.017 52.5671 130.111 52.7448C130.267 53.037 130.47 53.225 130.722 53.3087C130.976 53.3964 131.234 53.371 131.494 53.2325C131.703 53.1213 131.863 52.9603 131.974 52.7495C132.091 52.5406 132.183 52.3043 132.25 52.0405C132.318 51.7768 132.378 51.4993 132.431 51.2079C132.485 50.9205 132.556 50.6397 132.644 50.3655C132.735 50.0892 132.857 49.8341 133.012 49.6002C133.172 49.3682 133.392 49.1777 133.672 49.0287C133.901 48.907 134.132 48.8372 134.366 48.8194C134.605 48.8035 134.832 48.8349 135.046 48.9136C135.266 48.9941 135.469 49.1191 135.655 49.2885C135.841 49.4579 136 49.667 136.132 49.9158C136.307 50.2435 136.416 50.5348 136.46 50.7898C136.51 51.0466 136.534 51.249 136.532 51.3971L135.581 51.9788Z" fill="#FFB81C"/>
<path d="M137.31 60.8959C137.796 60.7581 138.271 60.7209 138.735 60.7844C139.203 60.8468 139.635 60.9916 140.029 61.219C140.425 61.4507 140.769 61.7573 141.063 62.1387C141.357 62.5201 141.574 62.9581 141.715 63.4528C141.852 63.9389 141.9 64.4181 141.857 64.8904C141.82 65.3657 141.698 65.8046 141.492 66.2071C141.286 66.6097 140.995 66.9617 140.621 67.2631C140.247 67.5689 139.796 67.7968 139.267 67.9469C138.825 68.0726 138.377 68.1159 137.925 68.077C137.472 68.038 137.046 67.9125 136.647 67.7005C136.248 67.4884 135.891 67.1898 135.578 66.8047C135.27 66.4227 135.035 65.9477 134.874 65.3799C134.738 64.8981 134.689 64.4217 134.727 63.9506C134.765 63.4796 134.888 63.0428 135.094 62.6403C135.301 62.2378 135.588 61.8842 135.957 61.5797C136.33 61.2739 136.781 61.046 137.31 60.8959ZM135.387 65.3947C135.474 65.7001 135.613 65.9627 135.806 66.1823C135.999 66.4063 136.236 66.5784 136.516 66.6987C136.797 66.819 137.115 66.8845 137.471 66.895C137.827 66.9055 138.211 66.8522 138.624 66.735C139.089 66.6033 139.505 66.4318 139.872 66.2206C140.244 66.0082 140.546 65.7622 140.778 65.4825C141.015 65.206 141.174 64.8961 141.253 64.5529C141.332 64.2097 141.316 63.8402 141.204 63.4445C141.117 63.139 140.977 62.8765 140.785 62.6568C140.597 62.436 140.364 62.2626 140.087 62.1368C139.811 62.0153 139.495 61.9492 139.139 61.9387C138.787 61.927 138.405 61.9797 137.992 62.0968C137.528 62.2286 137.11 62.4007 136.738 62.6131C136.367 62.8298 136.062 63.0792 135.821 63.3613C135.585 63.6421 135.424 63.9526 135.34 64.2927C135.26 64.6359 135.276 65.0032 135.387 65.3947Z" fill="#FFB81C"/>
<path d="M146.104 71.5857C146.087 71.4753 146.048 71.3591 145.988 71.2372C145.929 71.1197 145.839 71.0161 145.716 70.9266C145.594 70.8371 145.432 70.7719 145.231 70.7308C145.034 70.689 144.788 70.6912 144.492 70.7374L143.234 70.9338C143.275 71.1672 143.315 71.3849 143.356 71.5868C143.397 71.793 143.435 71.9772 143.469 72.1393C143.503 72.3014 143.534 72.437 143.56 72.5461C143.59 72.6545 143.614 72.7323 143.63 72.7795L142.936 72.7656C142.916 72.6103 142.897 72.4414 142.877 72.2588C142.862 72.1028 142.84 71.9184 142.811 71.7057C142.783 71.4929 142.751 71.2625 142.717 71.0144L139.041 71.5879C138.665 71.6465 138.337 71.7022 138.056 71.7552C137.78 71.8118 137.541 71.8626 137.34 71.9076C137.14 71.9569 136.973 72.0034 136.839 72.0468C136.706 72.0947 136.596 72.1391 136.507 72.1801L136.481 72.1842L136.242 70.6533L136.269 70.6492C136.365 70.6612 136.484 70.6676 136.624 70.6683C136.765 70.6691 136.938 70.6624 137.144 70.6484C137.35 70.6344 137.592 70.6101 137.872 70.5755C138.156 70.5403 138.486 70.4934 138.861 70.4348L142.537 69.8612L142.324 68.7541L142.907 68.6631C142.92 68.8015 142.938 68.966 142.964 69.1566C142.989 69.3473 143.019 69.5553 143.054 69.7806L144.167 69.607C144.507 69.554 144.815 69.5557 145.09 69.6123C145.371 69.6725 145.614 69.7773 145.818 69.9264C146.027 70.0749 146.197 70.2656 146.328 70.4986C146.459 70.7315 146.548 70.996 146.594 71.292C146.619 71.4555 146.632 71.6096 146.632 71.7545C146.632 71.8993 146.625 72.0293 146.612 72.1446C146.599 72.2643 146.581 72.3689 146.559 72.4583C146.542 72.5515 146.524 72.6289 146.507 72.6905L145.408 73.1267L145.355 73.0534C145.45 72.9661 145.547 72.8719 145.644 72.7708C145.746 72.6689 145.835 72.5577 145.911 72.4372C145.987 72.3167 146.043 72.1857 146.08 72.0442C146.122 71.9064 146.13 71.7536 146.104 71.5857Z" fill="#FFB81C"/>
<path d="M146.84 80.2776C146.82 80.8361 146.802 81.3903 146.787 81.9401C146.771 82.4944 146.757 83.0017 146.745 83.4622C146.737 83.9228 146.734 84.3164 146.736 84.6431C146.737 84.9698 146.747 85.1916 146.765 85.3086L145.886 84.9479C145.932 84.8019 145.974 84.6311 146.012 84.4356C146.045 84.2668 146.077 84.0599 146.108 83.8149C146.144 83.5746 146.167 83.2958 146.179 82.9785C146.183 82.8713 146.183 82.7415 146.179 82.5893C146.18 82.4417 146.179 82.2984 146.175 82.1596C146.172 81.9984 146.169 81.8349 146.166 81.6693L142.508 81.5366C142.496 81.9971 142.494 82.4131 142.503 82.7848C142.512 83.1566 142.523 83.4724 142.536 83.7324C142.551 84.0372 142.573 84.3065 142.6 84.5401L141.636 84.2971C141.688 83.9902 141.737 83.6766 141.784 83.3561C141.826 83.0802 141.863 82.7796 141.898 82.4542C141.936 82.1289 141.961 81.8166 141.972 81.5172L137.771 81.3649C137.752 81.8922 137.757 82.3778 137.785 82.8219C137.814 83.2659 137.851 83.6543 137.897 83.987C137.946 84.3736 138.007 84.7271 138.08 85.0474L137.002 84.8137C137.008 84.7602 137.016 84.6799 137.024 84.5729C137.033 84.4658 137.041 84.3453 137.051 84.2114C137.06 84.082 137.069 83.9436 137.079 83.7963C137.084 83.6533 137.092 83.5171 137.101 83.3877C137.105 83.2581 137.112 83.142 137.12 83.0394C137.124 82.941 137.126 82.8695 137.128 82.8249L137.233 79.9292L137.259 79.9302C137.352 79.9604 137.468 79.9892 137.605 80.0165C137.743 80.0484 137.914 80.0769 138.119 80.1023C138.323 80.1276 138.566 80.1498 138.847 80.169C139.133 80.1883 139.466 80.2048 139.845 80.2186L144.207 80.3767C144.586 80.3905 144.917 80.398 145.199 80.3993C145.485 80.4007 145.731 80.3962 145.937 80.3858C146.148 80.3755 146.323 80.3595 146.462 80.3377C146.602 80.3204 146.719 80.3 146.813 80.2766L146.84 80.2776Z" fill="#FFB81C"/>
<path d="M139.147 91.3637L137.434 89.4182C137.37 89.3475 137.304 89.2742 137.236 89.1983C137.167 89.1267 137.099 89.06 137.033 88.9981C136.967 88.9406 136.903 88.8905 136.842 88.8477C136.781 88.8094 136.729 88.7863 136.685 88.7783L136.885 87.6694L136.911 87.6742C136.96 87.7558 137.035 87.8693 137.136 88.0147C137.236 88.1646 137.364 88.3262 137.519 88.4996L139.775 91.0546L142.901 89.5136C143.072 89.4262 143.219 89.337 143.345 89.2461C143.47 89.1552 143.551 89.0857 143.587 89.0377L143.613 89.0424L143.287 90.851C143.212 90.8374 143.088 90.8424 142.916 90.8658C142.747 90.8943 142.536 90.9698 142.282 91.092L140.549 91.9374L141.941 93.5113C142.002 93.5768 142.067 93.6431 142.137 93.7103C142.205 93.7818 142.274 93.8441 142.341 93.8972C142.413 93.9555 142.479 94.0038 142.54 94.0422C142.601 94.0805 142.654 94.1036 142.698 94.1116L142.498 95.2205L142.471 95.2157C142.434 95.1453 142.377 95.0556 142.302 94.9465C142.226 94.8374 142.107 94.691 141.945 94.5072L139.936 92.2423L136.54 93.9186C136.315 94.0324 136.127 94.1416 135.977 94.2462C135.826 94.3507 135.728 94.4284 135.682 94.4793L135.656 94.4745L135.981 92.6726C136.056 92.6861 136.18 92.679 136.353 92.6512C136.531 92.6242 136.741 92.5532 136.984 92.4381L139.147 91.3637Z" fill="#FFB81C"/>
<path d="M139.344 97.6294C139.704 97.7506 140.02 97.8497 140.291 97.9269C140.565 98.0097 140.802 98.0754 141.003 98.124C141.202 98.1769 141.371 98.2127 141.511 98.2315C141.65 98.2545 141.768 98.2683 141.865 98.2728L141.891 98.2813L141.397 99.7498L141.371 99.7413C141.315 99.6987 141.249 99.6554 141.175 99.6114C141.1 99.5673 141.014 99.5218 140.916 99.4749C140.976 99.7734 141.004 100.089 141.001 100.423C141 100.762 140.937 101.117 140.813 101.485C140.655 101.956 140.43 102.357 140.14 102.688C139.852 103.025 139.513 103.282 139.124 103.457C138.734 103.637 138.303 103.733 137.832 103.744C137.362 103.756 136.866 103.674 136.345 103.498C135.908 103.351 135.515 103.134 135.164 102.846C134.811 102.562 134.529 102.222 134.318 101.825C134.106 101.433 133.978 100.994 133.934 100.507C133.895 100.022 133.967 99.5041 134.153 98.9531C134.264 98.6226 134.391 98.3302 134.533 98.0761C134.675 97.822 134.824 97.594 134.982 97.3923L134.054 97.08C133.694 96.9588 133.379 96.8575 133.109 96.7761C132.835 96.6933 132.598 96.6276 132.398 96.579C132.197 96.5303 132.028 96.4945 131.889 96.4715C131.751 96.4485 131.633 96.4347 131.535 96.4302L131.51 96.4216L132.004 94.9531L132.029 94.9617C132.109 95.0171 132.212 95.0775 132.336 95.1429C132.459 95.2125 132.615 95.2865 132.806 95.3648C132.995 95.4473 133.224 95.5385 133.492 95.6382C133.755 95.7407 134.066 95.8526 134.426 95.9738L139.344 97.6294ZM140.411 101.102C140.46 100.958 140.491 100.803 140.504 100.638C140.52 100.478 140.519 100.313 140.501 100.142C140.486 99.9764 140.45 99.8087 140.394 99.6388C140.341 99.4747 140.269 99.3182 140.177 99.1695C140.019 99.1068 139.839 99.0391 139.637 98.9665C139.435 98.8938 139.214 98.8168 138.972 98.7355L135.643 97.6147C135.551 97.6781 135.459 97.7535 135.369 97.8409C135.278 97.9283 135.187 98.0299 135.096 98.1456C135.008 98.2669 134.924 98.406 134.843 98.5627C134.76 98.7237 134.685 98.9058 134.617 99.1093C134.505 99.4398 134.464 99.7586 134.493 100.065C134.522 100.372 134.618 100.655 134.781 100.913C134.943 101.175 135.168 101.409 135.458 101.614C135.745 101.824 136.092 101.998 136.499 102.135C136.957 102.289 137.393 102.393 137.808 102.448C138.228 102.505 138.608 102.496 138.949 102.422C139.293 102.353 139.59 102.213 139.841 102C140.091 101.787 140.282 101.488 140.411 101.102Z" fill="#FFB81C"/>
<path d="M130.748 107.066C130.975 106.625 131.257 106.247 131.594 105.933C131.931 105.618 132.307 105.386 132.72 105.237C133.138 105.089 133.586 105.033 134.065 105.068C134.547 105.11 135.042 105.261 135.551 105.523C136 105.753 136.376 106.042 136.68 106.39C136.989 106.739 137.215 107.12 137.361 107.531C137.506 107.943 137.568 108.366 137.545 108.802C137.52 109.242 137.401 109.668 137.189 110.082C136.979 110.492 136.712 110.835 136.389 111.111C136.071 111.39 135.711 111.587 135.31 111.702C134.91 111.824 134.474 111.856 134.001 111.799C133.53 111.748 133.039 111.599 132.528 111.351C132.767 110.906 133.003 110.46 133.238 110.012C133.473 109.565 133.715 109.098 133.964 108.613C134.141 108.267 134.313 107.928 134.479 107.596C134.642 107.268 134.787 106.97 134.914 106.704C134.488 106.515 134.082 106.387 133.695 106.318C133.306 106.254 132.945 106.252 132.613 106.313C132.282 106.379 131.986 106.511 131.724 106.708C131.46 106.909 131.242 107.177 131.07 107.511C130.952 107.741 130.866 107.971 130.814 108.201C130.763 108.436 130.743 108.662 130.753 108.878C130.762 109.094 130.797 109.301 130.857 109.497C130.921 109.696 131.005 109.88 131.109 110.049L131.036 110.102L130.201 109.115C130.2 108.843 130.237 108.538 130.31 108.198C130.388 107.861 130.534 107.484 130.748 107.066ZM134.793 108.142C134.589 108.54 134.385 108.938 134.181 109.335C133.979 109.739 133.8 110.107 133.644 110.439C134.008 110.581 134.353 110.673 134.679 110.715C135.004 110.756 135.302 110.748 135.572 110.691C135.843 110.634 136.084 110.527 136.295 110.369C136.507 110.212 136.678 110.005 136.809 109.751C136.927 109.52 136.985 109.281 136.982 109.033C136.98 108.791 136.921 108.549 136.804 108.308C136.686 108.067 136.511 107.831 136.278 107.6C136.048 107.372 135.761 107.159 135.415 106.961C135.315 107.136 135.214 107.323 135.112 107.522C135.01 107.721 134.904 107.927 134.793 108.142Z" fill="#FFB81C"/>
<path d="M131.773 114.068C132.087 114.281 132.365 114.461 132.606 114.608C132.847 114.761 133.058 114.888 133.239 114.989C133.416 115.093 133.57 115.173 133.7 115.228C133.827 115.288 133.937 115.332 134.03 115.363L134.052 115.378L133.184 116.661L133.161 116.646C133.096 116.558 133.01 116.462 132.903 116.357C132.794 116.256 132.646 116.135 132.461 115.993C132.483 116.208 132.5 116.427 132.51 116.65C132.521 116.873 132.517 117.092 132.496 117.305C132.476 117.518 132.438 117.722 132.382 117.916C132.324 118.114 132.239 118.294 132.129 118.457C132.061 118.557 131.997 118.641 131.936 118.707C131.878 118.776 131.82 118.834 131.761 118.881C131.706 118.93 131.652 118.971 131.597 119.004C131.546 119.04 131.496 119.073 131.447 119.105L130.571 118.115L130.658 118.035C130.85 118.101 131.036 118.106 131.215 118.049C131.398 117.994 131.561 117.862 131.704 117.651C131.781 117.536 131.842 117.402 131.887 117.248C131.931 117.095 131.961 116.928 131.974 116.748C131.992 116.571 131.996 116.385 131.988 116.19C131.983 115.998 131.97 115.806 131.949 115.613C131.847 115.533 131.733 115.451 131.607 115.365C131.481 115.28 131.348 115.19 131.207 115.095L129.775 114.124C129.461 113.911 129.183 113.728 128.941 113.575C128.703 113.424 128.493 113.298 128.313 113.198C128.133 113.097 127.979 113.017 127.852 112.958C127.725 112.899 127.615 112.854 127.522 112.824L127.5 112.809L128.368 111.526L128.391 111.541C128.453 111.616 128.536 111.701 128.638 111.798C128.737 111.898 128.869 112.011 129.031 112.137C129.192 112.267 129.386 112.415 129.614 112.581C129.843 112.752 130.115 112.945 130.43 113.158L131.773 114.068Z" fill="#FFB81C"/>
<path d="M128.373 118.839C128.669 119.076 128.932 119.277 129.16 119.443C129.39 119.614 129.59 119.757 129.762 119.872C129.931 119.989 130.078 120.081 130.203 120.147C130.325 120.216 130.431 120.269 130.521 120.307L130.542 120.323L129.576 121.534L129.555 121.517C129.499 121.438 129.423 121.346 129.329 121.242C129.234 121.138 129.112 121.015 128.963 120.873C128.813 120.73 128.63 120.567 128.412 120.381C128.197 120.198 127.942 119.988 127.645 119.751L126.377 118.738C126.08 118.501 125.817 118.297 125.588 118.125C125.362 117.957 125.163 117.815 124.992 117.701C124.82 117.586 124.673 117.495 124.551 117.426C124.428 117.357 124.322 117.303 124.232 117.266L124.211 117.249L125.177 116.038L125.198 116.055C125.255 116.134 125.33 116.226 125.425 116.33C125.516 116.438 125.638 116.561 125.791 116.7C125.94 116.842 126.122 117.004 126.336 117.187C126.552 117.376 126.808 117.589 127.105 117.826L128.373 118.839ZM132.096 121.633C132.173 121.695 132.234 121.766 132.278 121.847C132.322 121.934 132.35 122.022 132.36 122.11C132.373 122.2 132.367 122.29 132.342 122.379C132.318 122.474 132.274 122.561 132.209 122.642C132.145 122.722 132.071 122.783 131.987 122.824C131.903 122.872 131.815 122.899 131.724 122.906C131.633 122.92 131.542 122.912 131.45 122.885C131.358 122.863 131.274 122.822 131.197 122.76C131.036 122.632 130.945 122.47 130.923 122.275C130.902 122.081 130.955 121.903 131.083 121.742C131.147 121.662 131.221 121.598 131.305 121.55C131.389 121.509 131.475 121.483 131.563 121.473C131.655 121.466 131.746 121.474 131.838 121.495C131.93 121.523 132.016 121.569 132.096 121.633Z" fill="#FFB81C"/>
<path d="M120.677 120.995C121.025 120.641 121.406 120.364 121.822 120.164C122.237 119.964 122.664 119.855 123.103 119.835C123.546 119.818 123.99 119.898 124.438 120.074C124.885 120.256 125.313 120.548 125.721 120.949C126.081 121.303 126.355 121.691 126.542 122.113C126.733 122.538 126.836 122.968 126.853 123.405C126.87 123.841 126.803 124.264 126.651 124.673C126.497 125.085 126.257 125.458 125.932 125.789C125.609 126.118 125.253 126.366 124.862 126.534C124.475 126.706 124.073 126.787 123.656 126.778C123.239 126.776 122.813 126.677 122.378 126.482C121.943 126.293 121.518 126.004 121.104 125.616C121.464 125.262 121.823 124.906 122.18 124.548C122.537 124.191 122.906 123.817 123.288 123.428C123.561 123.151 123.825 122.878 124.082 122.61C124.335 122.345 124.562 122.104 124.763 121.887C124.412 121.581 124.062 121.337 123.713 121.157C123.36 120.98 123.017 120.871 122.681 120.83C122.346 120.795 122.024 120.833 121.715 120.943C121.403 121.057 121.116 121.248 120.853 121.516C120.671 121.701 120.521 121.895 120.403 122.098C120.285 122.308 120.198 122.518 120.143 122.727C120.088 122.936 120.06 123.143 120.059 123.349C120.061 123.558 120.087 123.758 120.136 123.951L120.051 123.98L119.547 122.789C119.626 122.529 119.752 122.248 119.923 121.946C120.097 121.647 120.349 121.331 120.677 120.995ZM124.22 123.225C123.907 123.544 123.594 123.863 123.281 124.182C122.968 124.508 122.688 124.806 122.441 125.077C122.746 125.321 123.048 125.511 123.347 125.647C123.645 125.784 123.932 125.865 124.207 125.891C124.482 125.917 124.744 125.886 124.993 125.798C125.242 125.71 125.467 125.564 125.667 125.36C125.849 125.175 125.975 124.964 126.045 124.726C126.116 124.494 126.131 124.246 126.09 123.981C126.05 123.716 125.953 123.438 125.798 123.149C125.647 122.862 125.436 122.574 125.164 122.282C125.017 122.419 124.865 122.568 124.709 122.727C124.552 122.887 124.389 123.053 124.22 123.225Z" fill="#FFB81C"/>
<path d="M115.97 131.148C116.327 131.618 116.683 131.892 117.039 131.97C117.395 132.048 117.732 131.966 118.049 131.726C118.163 131.639 118.272 131.517 118.377 131.359C118.484 131.205 118.581 131.03 118.669 130.834C118.759 130.642 118.838 130.436 118.907 130.216C118.975 129.995 119.029 129.775 119.069 129.554L118.549 128.845L117.569 127.552C117.339 127.249 117.134 126.987 116.954 126.764C116.777 126.545 116.619 126.359 116.481 126.206C116.342 126.053 116.222 125.928 116.12 125.831C116.019 125.734 115.929 125.656 115.851 125.598L115.835 125.576L117.069 124.64L117.085 124.661C117.12 124.752 117.171 124.86 117.237 124.984C117.299 125.11 117.387 125.26 117.501 125.432C117.611 125.606 117.747 125.809 117.91 126.039C118.073 126.275 118.268 126.544 118.498 126.847L119.479 128.14C119.708 128.443 119.913 128.702 120.094 128.919C120.274 129.141 120.434 129.329 120.572 129.482C120.707 129.638 120.827 129.763 120.932 129.857C121.034 129.954 121.123 130.032 121.202 130.091L121.218 130.112L119.984 131.048L119.968 131.027C119.929 130.916 119.865 130.785 119.778 130.632C119.689 130.486 119.57 130.296 119.421 130.061C119.367 130.293 119.302 130.533 119.226 130.781C119.147 131.032 119.052 131.273 118.941 131.503C118.832 131.737 118.705 131.955 118.559 132.155C118.417 132.359 118.254 132.529 118.073 132.667C117.795 132.878 117.524 133.008 117.258 133.058C116.99 133.111 116.735 133.104 116.495 133.039C116.252 132.977 116.026 132.865 115.819 132.702C115.611 132.546 115.428 132.365 115.272 132.158L113.894 130.341C113.664 130.039 113.46 129.776 113.28 129.553C113.102 129.334 112.944 129.148 112.806 128.995C112.667 128.842 112.547 128.717 112.446 128.62C112.344 128.523 112.254 128.445 112.176 128.387L112.16 128.365L113.394 127.429L113.41 127.45C113.445 127.541 113.496 127.649 113.562 127.773C113.624 127.9 113.712 128.049 113.826 128.221C113.936 128.395 114.073 128.598 114.236 128.828C114.398 129.064 114.594 129.333 114.823 129.636L115.97 131.148Z" fill="#FFB81C"/>
<path d="M105.914 133.644L105.771 132.359C105.851 132.254 105.949 132.144 106.064 132.029C106.179 131.914 106.304 131.802 106.437 131.693C106.567 131.585 106.703 131.485 106.845 131.391C106.985 131.293 107.122 131.207 107.255 131.134C107.728 130.872 108.204 130.699 108.683 130.613C109.16 130.534 109.619 130.546 110.059 130.651C110.495 130.757 110.903 130.958 111.281 131.255C111.659 131.552 111.985 131.949 112.259 132.446C112.503 132.889 112.645 133.344 112.684 133.813C112.721 134.288 112.666 134.747 112.518 135.192C112.366 135.638 112.128 136.053 111.803 136.437C111.479 136.82 111.076 137.145 110.595 137.41C110.376 137.531 110.13 137.641 109.858 137.741C109.588 137.844 109.339 137.92 109.111 137.969L108.144 137.201L108.191 137.121C108.356 137.188 108.534 137.233 108.725 137.255C108.914 137.284 109.11 137.288 109.314 137.267C109.513 137.249 109.713 137.21 109.915 137.15C110.117 137.09 110.311 137.008 110.499 136.904C110.804 136.735 111.052 136.527 111.242 136.279C111.434 136.035 111.564 135.762 111.632 135.459C111.699 135.156 111.702 134.828 111.64 134.474C111.575 134.126 111.44 133.765 111.232 133.389C110.999 132.966 110.735 132.598 110.44 132.286C110.142 131.976 109.824 131.738 109.487 131.571C109.149 131.411 108.794 131.333 108.424 131.338C108.053 131.35 107.673 131.462 107.286 131.676C107.106 131.775 106.94 131.895 106.787 132.036C106.633 132.182 106.501 132.339 106.39 132.508C106.277 132.683 106.186 132.866 106.118 133.056C106.05 133.247 106.011 133.442 106.003 133.641L105.914 133.644Z" fill="#FFB81C"/>
<path d="M100.023 134.444C100.487 134.269 100.95 134.179 101.411 134.173C101.871 134.167 102.305 134.247 102.712 134.414C103.12 134.586 103.49 134.846 103.821 135.194C104.15 135.548 104.415 135.993 104.616 136.529C104.794 137.002 104.879 137.469 104.87 137.931C104.864 138.396 104.776 138.831 104.608 139.233C104.439 139.636 104.2 139.991 103.891 140.298C103.577 140.607 103.203 140.843 102.767 141.007C102.337 141.169 101.909 141.244 101.484 141.232C101.061 141.224 100.662 141.128 100.287 140.944C99.9101 140.766 99.5655 140.496 99.2534 140.136C98.9388 139.781 98.6753 139.341 98.4631 138.814C98.939 138.644 99.4141 138.473 99.8884 138.299C100.362 138.126 100.855 137.943 101.365 137.751C101.729 137.614 102.084 137.478 102.43 137.344C102.771 137.21 103.078 137.088 103.351 136.976C103.163 136.55 102.948 136.181 102.707 135.871C102.462 135.562 102.196 135.318 101.909 135.139C101.62 134.966 101.312 134.864 100.986 134.834C100.655 134.806 100.314 134.857 99.9629 134.99C99.7203 135.081 99.5025 135.194 99.3096 135.328C99.114 135.469 98.9473 135.622 98.8093 135.789C98.6713 135.955 98.5584 136.131 98.4707 136.317C98.3845 136.507 98.3232 136.7 98.2867 136.895L98.1973 136.886L98.2418 135.594C98.4237 135.392 98.6558 135.19 98.9382 134.988C99.2221 134.79 99.5837 134.609 100.023 134.444ZM102.296 137.96C101.878 138.117 101.459 138.275 101.041 138.432C100.62 138.595 100.24 138.747 99.9022 138.889C100.076 139.239 100.27 139.539 100.483 139.788C100.696 140.038 100.922 140.232 101.161 140.372C101.399 140.511 101.65 140.594 101.913 140.619C102.175 140.645 102.441 140.607 102.708 140.506C102.951 140.415 103.154 140.276 103.318 140.091C103.48 139.91 103.598 139.692 103.673 139.434C103.749 139.176 103.777 138.884 103.759 138.556C103.743 138.233 103.673 137.882 103.55 137.503C103.358 137.565 103.158 137.636 102.949 137.715C102.739 137.793 102.522 137.875 102.296 137.96Z" fill="#FFB81C"/>
<path d="M90.4606 144.921L88.7285 144.333L88.9287 143.827L90.6078 144.512L90.2726 142.731L90.816 142.647L91.0405 144.459L92.4339 143.287L92.777 143.709L91.3153 144.789L93.0352 145.386L92.835 145.892L91.1538 145.194L91.4844 146.989L90.9411 147.073L90.7231 145.261L89.3298 146.432L88.9867 146.01L90.4606 144.921Z" fill="#FFB81C"/>
<path d="M79.7706 138.234C79.741 138.327 79.7129 138.442 79.6864 138.58C79.6554 138.718 79.6278 138.889 79.6037 139.094C79.5796 139.299 79.5589 139.542 79.5414 139.824C79.5238 140.11 79.5093 140.442 79.4978 140.822L79.3656 145.187C79.3541 145.567 79.3718 145.869 79.4187 146.094C79.4655 146.319 79.5251 146.493 79.5974 146.616C79.6652 146.739 79.7385 146.829 79.8173 146.885C79.8916 146.941 79.9549 146.992 80.0071 147.038L80.0063 147.065L77.9258 147.774L77.9266 147.747C77.9562 147.654 77.9866 147.538 78.0175 147.401C78.0441 147.263 78.0695 147.089 78.0937 146.88C78.1178 146.674 78.1386 146.429 78.1562 146.143C78.1737 145.862 78.1882 145.531 78.1997 145.151L78.3318 140.787C78.3433 140.407 78.3489 140.074 78.3486 139.788C78.3482 139.506 78.3422 139.262 78.3305 139.056C78.3189 138.85 78.304 138.677 78.2858 138.538C78.2632 138.398 78.2399 138.281 78.216 138.187L78.2168 138.16L79.7714 138.207L79.7706 138.234Z" fill="#FFB81C"/>
<path d="M75.1085 136.944C74.4478 137.004 73.8339 137.112 73.2668 137.268C72.6953 137.423 72.1901 137.632 71.7512 137.894C71.3117 138.16 70.9513 138.484 70.6702 138.865C70.3891 139.247 70.209 139.692 70.1298 140.2C70.0513 140.704 70.0861 141.148 70.2342 141.533C70.3823 141.918 70.6154 142.251 70.9335 142.532C71.2473 142.811 71.6344 143.041 72.0948 143.222C72.5508 143.402 73.0475 143.538 73.5849 143.631L72.1232 147.394L70.8579 147.197C70.4826 147.138 70.1558 147.087 69.8776 147.044C69.5943 147.004 69.351 146.969 69.1479 146.937C68.9441 146.91 68.7734 146.888 68.6358 146.871C68.4982 146.854 68.3823 146.842 68.2882 146.837L68.2617 146.833L68.4858 145.395L68.5123 145.399C68.6009 145.44 68.7119 145.482 68.8454 145.525C68.9789 145.569 69.1458 145.615 69.3462 145.665C69.5466 145.714 69.7874 145.765 70.0686 145.818C70.3455 145.87 70.6716 145.926 71.0469 145.984L72.0273 146.137L72.6107 144.701C72.2544 144.636 71.9066 144.546 71.5674 144.429C71.2275 144.317 70.9082 144.175 70.6095 144.002C70.3101 143.833 70.0402 143.634 69.7997 143.407C69.5542 143.183 69.3516 142.93 69.1922 142.647C69.032 142.368 68.9218 142.059 68.8617 141.72C68.7964 141.384 68.7944 141.019 68.8557 140.626C68.9349 140.118 69.0838 139.67 69.3024 139.283C69.521 138.897 69.7885 138.558 70.1051 138.268C70.4217 137.978 70.7767 137.733 71.1699 137.531C71.5631 137.33 71.9758 137.164 72.4079 137.032C72.8357 136.9 73.2725 136.796 73.7185 136.721C74.1645 136.645 74.5982 136.591 75.0196 136.557L75.1085 136.944Z" fill="#FFB81C"/>
<path d="M60.8174 139.508L61.8284 136.374L62.4855 136.586L61.4746 139.72L64.6072 140.732L64.3952 141.389L61.2625 140.378L60.2515 143.512L59.5944 143.3L60.6054 140.166L57.4727 139.154L57.6848 138.497L60.8174 139.508Z" fill="#FFB81C"/>
<path d="M47.5754 133.633L48.6007 131.925C48.7963 131.6 48.964 131.312 49.1036 131.062C49.2409 130.816 49.3548 130.6 49.4454 130.414C49.5359 130.229 49.6073 130.071 49.6595 129.94C49.7078 129.808 49.7447 129.694 49.77 129.6L49.7838 129.577L51.1631 130.406L51.1493 130.429C51.078 130.496 50.9971 130.583 50.9066 130.69C50.8122 130.795 50.7064 130.932 50.589 131.102C50.4678 131.269 50.3309 131.471 50.1783 131.708C50.0195 131.946 49.8423 132.228 49.6467 132.554L48.6904 134.147L49.1604 139.186C49.1772 139.358 49.1997 139.52 49.228 139.673C49.2525 139.823 49.2811 139.958 49.314 140.077C49.3446 140.199 49.3756 140.304 49.407 140.391C49.4384 140.477 49.4644 140.543 49.4851 140.586L49.4713 140.609L47.7299 139.563C47.7829 139.475 47.8339 139.307 47.8831 139.06C47.9262 138.815 47.9317 138.497 47.8997 138.108L47.5647 134.393L44.1008 135.981C43.9782 136.038 43.8543 136.097 43.7294 136.157C43.6044 136.218 43.4875 136.278 43.3786 136.338C43.2697 136.397 43.177 136.456 43.1003 136.515C43.0198 136.57 42.9634 136.625 42.9312 136.679L41.8105 136.005L41.8243 135.982C41.9523 135.96 42.131 135.919 42.3602 135.859C42.5871 135.802 42.8543 135.704 43.1617 135.566L47.5754 133.633Z" fill="#FFB81C"/>
<path d="M43.7399 125.065C44.1226 125.38 44.4315 125.737 44.6665 126.133C44.9015 126.53 45.0479 126.946 45.1056 127.382C45.1606 127.822 45.1197 128.272 44.9831 128.733C44.8401 129.195 44.5867 129.646 44.2228 130.088C43.9015 130.478 43.5388 130.784 43.1348 131.007C42.728 131.234 42.3081 131.374 41.8752 131.429C41.4423 131.483 41.0155 131.453 40.5949 131.337C40.1708 131.219 39.7794 131.013 39.4208 130.717C39.0656 130.424 38.7875 130.09 38.5863 129.715C38.3824 129.344 38.2668 128.95 38.2394 128.534C38.2058 128.118 38.2673 127.685 38.424 127.234C38.5745 126.785 38.8251 126.337 39.1758 125.89C39.5598 126.218 39.9452 126.545 40.332 126.87C40.7189 127.195 41.1226 127.531 41.5433 127.878C41.8434 128.125 42.1379 128.365 42.427 128.598C42.7126 128.828 42.972 129.033 43.2053 129.214C43.4803 128.838 43.6924 128.468 43.8416 128.104C43.9873 127.738 44.0662 127.385 44.0781 127.048C44.0838 126.71 44.0183 126.393 43.8817 126.095C43.7417 125.794 43.5268 125.524 43.2371 125.285C43.0371 125.12 42.8307 124.987 42.6179 124.887C42.3988 124.787 42.1827 124.719 41.9696 124.682C41.7565 124.646 41.5476 124.636 41.3428 124.652C41.1352 124.672 40.9377 124.715 40.7503 124.781L40.7138 124.698L41.8558 124.093C42.1216 124.15 42.4123 124.251 42.7278 124.395C43.0404 124.543 43.3778 124.766 43.7399 125.065ZM41.8262 128.789C41.4814 128.505 41.1365 128.22 40.7917 127.936C40.4406 127.652 40.1193 127.398 39.8281 127.175C39.6117 127.501 39.4486 127.819 39.3386 128.128C39.2286 128.437 39.1726 128.73 39.1706 129.006C39.1687 129.283 39.2221 129.541 39.3309 129.782C39.4398 130.022 39.6045 130.234 39.8252 130.416C40.0252 130.581 40.2467 130.688 40.4896 130.738C40.7262 130.788 40.9748 130.782 41.2354 130.718C41.496 130.655 41.7638 130.534 42.0387 130.355C42.3107 130.18 42.5802 129.944 42.847 129.648C42.6975 129.514 42.5366 129.375 42.3642 129.233C42.1918 129.091 42.0124 128.943 41.8262 128.789Z" fill="#FFB81C"/>
<path d="M38.4846 123.283C38.2235 123.521 37.9489 123.674 37.6609 123.743C37.3699 123.808 37.0754 123.813 36.7775 123.758C36.4795 123.703 36.1854 123.599 35.8952 123.446C35.6018 123.296 35.3206 123.12 35.0517 122.917C34.7796 122.717 34.5269 122.506 34.2938 122.283C34.0575 122.063 33.8474 121.855 33.6636 121.66L33.4107 121.89C33.1925 122.088 33.0296 122.288 32.9221 122.489C32.8145 122.689 32.7561 122.888 32.7469 123.083C32.7343 123.282 32.7694 123.477 32.8522 123.668C32.9286 123.858 33.045 124.039 33.2015 124.211C33.3097 124.33 33.4264 124.439 33.5515 124.536C33.6766 124.634 33.8195 124.725 33.9801 124.808C34.1376 124.888 34.3192 124.962 34.5249 125.029C34.7276 125.092 34.9623 125.147 35.2289 125.195L35.2443 125.272L34.2383 125.571C34.0895 125.507 33.952 125.435 33.826 125.356C33.6967 125.281 33.5725 125.197 33.4534 125.106C33.3344 125.015 33.2204 124.916 33.1115 124.81C32.9963 124.703 32.8816 124.587 32.7673 124.461C32.4515 124.114 32.2252 123.779 32.0886 123.456C31.9457 123.133 31.8779 122.825 31.8853 122.535C31.8864 122.243 31.953 121.971 32.0852 121.718C32.2141 121.468 32.3909 121.24 32.6158 121.035L34.2324 119.564C34.5134 119.308 34.7566 119.081 34.9622 118.882C35.1615 118.682 35.3326 118.508 35.4757 118.36C35.6157 118.208 35.7294 118.077 35.8169 117.968C35.9013 117.854 35.9692 117.756 36.0206 117.673L36.0404 117.655L37.0375 118.752L37.0177 118.77C36.9497 118.801 36.8797 118.844 36.8076 118.897C36.7324 118.948 36.6456 119.012 36.547 119.089C36.6697 119.105 36.806 119.132 36.956 119.17C37.1031 119.206 37.2587 119.261 37.4229 119.335C37.5807 119.409 37.7422 119.507 37.9073 119.628C38.0727 119.744 38.2351 119.889 38.3945 120.065C38.9179 120.64 39.1885 121.207 39.2065 121.765C39.2212 122.326 38.9805 122.832 38.4846 123.283ZM34.0504 121.307C34.3274 121.605 34.6088 121.878 34.8945 122.126C35.1769 122.377 35.4654 122.564 35.7601 122.689C36.0518 122.811 36.3488 122.852 36.6513 122.812C36.9474 122.772 37.2475 122.614 37.5517 122.337C37.9418 121.982 38.1506 121.614 38.1781 121.232C38.2056 120.85 38.0629 120.487 37.7501 120.143C37.6058 119.985 37.4534 119.86 37.2932 119.77C37.1266 119.68 36.9651 119.616 36.8087 119.577C36.6461 119.537 36.4935 119.519 36.351 119.522C36.2052 119.527 36.0777 119.547 35.9686 119.58C35.8369 119.687 35.6951 119.81 35.543 119.949C35.3876 120.09 35.2124 120.25 35.0174 120.427L34.0504 121.307Z" fill="#FFB81C"/>
<path d="M30.9345 117.994C30.6257 118.216 30.3607 118.414 30.1396 118.589C29.9123 118.763 29.7203 118.917 29.5636 119.051C29.4042 119.182 29.2761 119.298 29.179 119.401C29.0794 119.5 28.9993 119.588 28.9386 119.664L28.9168 119.68L28.0149 118.42L28.0367 118.405C28.1411 118.374 28.261 118.326 28.3966 118.262C28.5295 118.194 28.6943 118.098 28.891 117.974C28.6821 117.92 28.4711 117.859 28.258 117.792C28.0449 117.725 27.8419 117.645 27.649 117.552C27.4561 117.459 27.2782 117.353 27.1155 117.233C26.9501 117.11 26.8101 116.968 26.6956 116.808C26.6253 116.71 26.5696 116.621 26.5284 116.54C26.4836 116.462 26.4495 116.388 26.426 116.316C26.3989 116.248 26.3793 116.182 26.3673 116.119C26.3516 116.059 26.3373 116 26.3242 115.944L27.5564 115.465L27.601 115.573C27.4724 115.731 27.4038 115.904 27.3952 116.092C27.383 116.282 27.4511 116.481 27.5994 116.688C27.6801 116.801 27.7847 116.905 27.9132 117C28.0416 117.095 28.1878 117.18 28.3515 117.255C28.5117 117.333 28.6845 117.401 28.8701 117.461C29.052 117.523 29.2368 117.577 29.4244 117.624C29.535 117.556 29.652 117.478 29.7756 117.389C29.8991 117.301 30.0299 117.207 30.168 117.108L31.574 116.1C31.8829 115.879 32.151 115.681 32.3783 115.507C32.602 115.336 32.7922 115.183 32.9489 115.049C33.1056 114.915 33.2338 114.798 33.3334 114.699C33.433 114.6 33.5132 114.512 33.5739 114.436L33.5957 114.42L34.4976 115.68L34.4758 115.695C34.3838 115.728 34.2751 115.776 34.1494 115.839C34.0212 115.897 33.8696 115.981 33.6946 116.09C33.5171 116.196 33.3113 116.327 33.0772 116.483C32.8368 116.639 32.5622 116.828 32.2534 117.049L30.9345 117.994Z" fill="#FFB81C"/>
<path d="M24.9977 111.132L25.0551 111.207C24.9806 111.285 24.91 111.383 24.8434 111.502C24.7746 111.617 24.7245 111.748 24.6931 111.893C24.6595 112.035 24.6535 112.189 24.6751 112.357C24.6906 112.522 24.7474 112.693 24.8454 112.868C24.9129 112.989 24.9947 113.095 25.0909 113.184C25.1848 113.27 25.2898 113.335 25.4057 113.377C25.5157 113.418 25.6344 113.434 25.762 113.424C25.8896 113.414 26.0217 113.371 26.1583 113.295C26.3496 113.188 26.5003 113.027 26.6106 112.812C26.7148 112.595 26.8027 112.349 26.8742 112.074C26.9418 111.8 27.0038 111.512 27.0601 111.209C27.1142 110.903 27.1848 110.607 27.2719 110.323C27.3591 110.039 27.4773 109.778 27.6266 109.541C27.7699 109.302 27.9644 109.114 28.2103 108.977C28.4093 108.866 28.6241 108.792 28.8545 108.756C29.081 108.721 29.3098 108.737 29.5409 108.803C29.7698 108.864 29.9953 108.984 30.2175 109.162C30.4336 109.338 30.6299 109.585 30.8063 109.901C30.9109 110.088 30.9913 110.274 31.0477 110.458C31.1018 110.637 31.1417 110.81 31.1672 110.975C31.1866 111.138 31.1956 111.292 31.1941 111.436C31.1866 111.578 31.1764 111.707 31.1636 111.822L30.0186 112.384L29.9664 112.29C30.128 112.149 30.2632 111.997 30.3718 111.834C30.4804 111.67 30.5578 111.502 30.6039 111.328C30.644 111.152 30.6538 110.972 30.6335 110.789C30.6093 110.608 30.5482 110.429 30.4501 110.254C30.289 109.965 30.0815 109.781 29.8279 109.702C29.572 109.62 29.3153 109.651 29.0577 109.794C28.8509 109.91 28.6943 110.074 28.5879 110.287C28.4754 110.498 28.3882 110.737 28.3262 111.002C28.2642 111.267 28.2098 111.545 28.1631 111.838C28.1141 112.126 28.0489 112.408 27.9674 112.684C27.882 112.963 27.7646 113.22 27.6153 113.457C27.4599 113.692 27.2437 113.887 26.9666 114.042C26.7402 114.168 26.5105 114.243 26.2774 114.266C26.0383 114.286 25.811 114.26 25.5955 114.185C25.374 114.109 25.1684 113.989 24.9788 113.823C24.7892 113.658 24.6258 113.452 24.4886 113.206C24.3078 112.882 24.1926 112.593 24.1431 112.339C24.0875 112.083 24.0593 111.881 24.0586 111.733L24.9977 111.132Z" fill="#FFB81C"/>
<path d="M23.083 102.252C22.6001 102.4 22.126 102.447 21.6608 102.393C21.1913 102.341 20.7571 102.205 20.3582 101.986C19.9579 101.762 19.6069 101.463 19.3051 101.088C19.0034 100.712 18.7772 100.279 18.6268 99.7873C18.4789 99.3041 18.4215 98.826 18.4543 98.353C18.4816 97.877 18.5943 97.4357 18.7924 97.0289C18.9904 96.6222 19.2735 96.2643 19.6417 95.9551C20.0085 95.6417 20.4547 95.4045 20.9804 95.2434C21.4206 95.1086 21.8672 95.056 22.3203 95.0856C22.7734 95.1151 23.2017 95.2318 23.6053 95.4355C24.0089 95.6393 24.3714 95.9304 24.6929 96.3089C25.0088 96.6845 25.2531 97.1545 25.4258 97.7189C25.5723 98.1977 25.6313 98.673 25.6027 99.1448C25.5741 99.6165 25.4608 100.056 25.2627 100.462C25.0646 100.869 24.7843 101.229 24.4218 101.541C24.0549 101.854 23.6087 102.091 23.083 102.252ZM24.9127 97.7147C24.8198 97.4111 24.6749 97.1515 24.4781 96.9359C24.2799 96.716 24.0394 96.5488 23.7567 96.4344C23.4739 96.3199 23.1544 96.2611 22.7982 96.2579C22.4421 96.2548 22.0588 96.3161 21.6485 96.4417C21.187 96.5831 20.7747 96.7632 20.4116 96.9819C20.0442 97.202 19.7475 97.4542 19.5213 97.7386C19.2896 98.02 19.1377 98.3331 19.0656 98.6779C18.9934 99.0226 19.0176 99.3917 19.1379 99.7851C19.2308 100.089 19.3757 100.348 19.5725 100.564C19.7651 100.781 20.0013 100.949 20.2811 101.069C20.5596 101.185 20.8769 101.245 21.2331 101.248C21.5851 101.252 21.9662 101.192 22.3764 101.066C22.838 100.925 23.2524 100.744 23.6198 100.524C23.9858 100.299 24.2862 100.044 24.5209 99.7567C24.7513 99.471 24.9054 99.1572 24.9831 98.8155C25.0552 98.4707 25.0318 98.1038 24.9127 97.7147Z" fill="#FFB81C"/>
<path d="M14.0677 91.7272C14.0871 91.8373 14.128 91.9527 14.1901 92.0734C14.2515 92.1897 14.3444 92.2913 14.4687 92.3783C14.593 92.4653 14.756 92.5272 14.9577 92.5642C15.155 92.602 15.4011 92.5947 15.696 92.5426L16.9503 92.3206C16.9047 92.0881 16.8595 91.8713 16.8149 91.6703C16.7695 91.4649 16.728 91.2815 16.6904 91.1201C16.6528 90.9588 16.6199 90.8238 16.5917 90.7153C16.559 90.6076 16.534 90.5303 16.5166 90.4834L17.211 90.4831C17.2338 90.638 17.2568 90.8065 17.2799 90.9886C17.2984 91.1443 17.3241 91.3282 17.357 91.5403C17.39 91.7524 17.4261 91.9822 17.4652 92.2295L21.1292 91.5813C21.5033 91.5151 21.8304 91.4527 22.1105 91.394C22.3854 91.3318 22.623 91.2761 22.8231 91.2271C23.0224 91.1736 23.1884 91.1239 23.3209 91.0777C23.4527 91.0271 23.5624 90.9805 23.6502 90.9377L23.6766 90.933L23.9463 92.4587L23.9199 92.4634C23.8228 92.4533 23.7041 92.4494 23.5637 92.4515C23.4234 92.4536 23.2505 92.4638 23.0449 92.482C22.8393 92.5002 22.5971 92.5294 22.3183 92.5697C22.0351 92.6107 21.7064 92.6643 21.3323 92.7305L17.6684 93.3788L17.9041 94.4814L17.3232 94.5842C17.3079 94.4461 17.2857 94.282 17.2566 94.0919C17.2275 93.9018 17.1931 93.6945 17.1535 93.4699L16.0444 93.6661C15.7055 93.7261 15.3976 93.7306 15.1209 93.6797C14.8389 93.6251 14.5943 93.5253 14.3871 93.3804C14.1756 93.2362 14.0018 93.0489 13.8657 92.8187C13.7297 92.5885 13.6357 92.3259 13.5835 92.0309C13.5547 91.8679 13.5389 91.7141 13.536 91.5693C13.5331 91.4245 13.5373 91.2943 13.5486 91.1788C13.5592 91.0589 13.5747 90.9539 13.5951 90.8641C13.6104 90.7705 13.6261 90.6928 13.6424 90.6309L14.7324 90.1724L14.786 90.2447C14.6928 90.3338 14.5986 90.4299 14.5034 90.5331C14.4037 90.637 14.317 90.7499 14.2433 90.872C14.1696 90.994 14.1158 91.1261 14.0819 91.2683C14.0428 91.4069 14.0381 91.5599 14.0677 91.7272Z" fill="#FFB81C"/>
<path d="M13.1591 83.0877C13.1679 82.5289 13.1744 81.9744 13.1785 81.4244C13.1828 80.8699 13.1863 80.3624 13.1891 79.9018C13.1874 79.4412 13.1824 79.0475 13.1741 78.721C13.1658 78.3944 13.1514 78.1728 13.1309 78.0562L14.0173 78.3988C13.9748 78.5457 13.9363 78.7173 13.9019 78.9135C13.8724 79.083 13.8446 79.2905 13.8184 79.5361C13.7878 79.7771 13.77 80.0563 13.765 80.3738C13.7633 80.4811 13.7657 80.6108 13.7723 80.7629C13.7744 80.9106 13.7789 81.0537 13.7856 81.1925C13.792 81.3536 13.7984 81.5169 13.8047 81.6825L17.4648 81.7401C17.4675 81.2795 17.4607 80.8635 17.4441 80.492C17.4276 80.1206 17.4103 79.805 17.392 79.5454C17.37 79.2409 17.3429 78.9722 17.3108 78.7391L18.2795 78.9622C18.2344 79.2701 18.1915 79.5848 18.1507 79.9061C18.115 80.1828 18.0835 80.4842 18.056 80.8102C18.0241 81.1362 18.0057 81.449 18.001 81.7485L22.204 81.8147C22.2123 81.2871 22.1976 80.8016 22.1598 80.3583C22.1221 79.915 22.0768 79.5274 22.0239 79.1957C21.9674 78.8102 21.8992 78.458 21.8193 78.1393L22.9021 78.3508C22.8968 78.4044 22.8911 78.4848 22.8849 78.5921C22.8788 78.6993 22.8724 78.8199 22.8658 78.954C22.8593 79.0836 22.8527 79.2221 22.8459 79.3696C22.8436 79.5127 22.8393 79.649 22.8328 79.7786C22.8307 79.9082 22.8266 80.0245 22.8206 80.1272C22.819 80.2256 22.8179 80.2971 22.8172 80.3418L22.7716 83.239L22.7448 83.2386C22.6514 83.2103 22.5356 83.1839 22.3974 83.1593C22.2593 83.1303 22.0876 83.1053 21.8823 83.0842C21.677 83.063 21.4337 83.0458 21.1523 83.0324C20.8664 83.019 20.5335 83.0093 20.1537 83.0033L15.7898 82.9346C15.41 82.9286 15.0792 82.9279 14.7975 82.9324C14.5114 82.9368 14.2654 82.9464 14.0595 82.961C13.8492 82.9756 13.6746 82.9952 13.5356 83.0199C13.3967 83.04 13.2802 83.0628 13.1859 83.0881L13.1591 83.0877Z" fill="#FFB81C"/>
<path d="M20.6268 71.8265L22.3789 73.7367C22.4448 73.8061 22.5125 73.878 22.5821 73.9525C22.6523 74.0226 22.7211 74.088 22.7884 74.1485C22.8564 74.2047 22.921 74.2535 22.9823 74.295C23.0442 74.3321 23.0973 74.3541 23.1414 74.3612L22.9637 75.4739L22.9373 75.4697C22.8868 75.3891 22.8096 75.2772 22.7058 75.1338C22.6026 74.986 22.4719 74.827 22.3135 74.6568L20.0052 72.1482L16.9111 73.7526C16.7427 73.8434 16.5968 73.9355 16.4732 74.029C16.3497 74.1225 16.2704 74.1936 16.2355 74.2423L16.209 74.2381L16.4988 72.4233C16.5738 72.4353 16.6972 72.4278 16.869 72.4009C17.037 72.3689 17.2466 72.2892 17.4978 72.1618L19.2135 71.2813L17.7901 69.7361C17.7279 69.6719 17.6613 69.6069 17.5904 69.5412C17.5201 69.4711 17.4506 69.4102 17.3819 69.3584C17.3095 69.3016 17.2423 69.2546 17.1804 69.2176C17.1184 69.1805 17.0654 69.1584 17.0212 69.1514L17.1989 68.0386L17.2254 68.0429C17.264 68.1125 17.3223 68.201 17.4002 68.3086C17.4781 68.4161 17.5999 68.5601 17.7657 68.7406L19.8208 70.9641L23.1817 69.219C23.4043 69.1006 23.5898 68.9876 23.7383 68.88C23.8867 68.7724 23.9832 68.6928 24.0276 68.641L24.0541 68.6452L23.7654 70.4534C23.6904 70.4414 23.5666 70.4511 23.3942 70.4824C23.2173 70.513 23.0084 70.5883 22.7674 70.7082L20.6268 71.8265Z" fill="#FFB81C"/>
<path d="M20.2996 65.5679C19.9371 65.4541 19.6195 65.3615 19.3468 65.29C19.0712 65.2129 18.8327 65.1521 18.6311 65.1076C18.431 65.0589 18.2608 65.0265 18.1205 65.0107C17.9816 64.9905 17.8634 64.9792 17.7658 64.9767L17.7402 64.9687L18.2037 63.4903L18.2293 63.4983C18.2866 63.5397 18.353 63.5816 18.4287 63.6241C18.5044 63.6666 18.5914 63.7103 18.6897 63.7552C18.6236 63.458 18.589 63.1426 18.5859 62.8088C18.5799 62.4695 18.635 62.1143 18.7514 61.7431C18.8999 61.2695 19.116 60.864 19.3997 60.5266C19.6806 60.1836 20.0137 59.9202 20.3992 59.7366C20.786 59.5486 21.2146 59.4441 21.6849 59.423C22.1553 59.4019 22.6527 59.4736 23.1773 59.6382C23.6165 59.776 24.0146 59.9853 24.3716 60.266C24.7299 60.5425 25.0186 60.8767 25.2376 61.2688C25.458 61.6566 25.5951 62.0933 25.649 62.5789C25.6986 63.0631 25.6365 63.5825 25.4626 64.1371C25.3583 64.4699 25.2378 64.7648 25.101 65.0219C24.9642 65.2789 24.8192 65.5098 24.6659 65.7148L25.5999 66.0079C25.9624 66.1216 26.2793 66.2164 26.5507 66.2921C26.8263 66.3693 27.0648 66.4301 27.2663 66.4745C27.4679 66.519 27.6381 66.5513 27.777 66.5715C27.9159 66.5916 28.0341 66.603 28.1317 66.6055L28.1573 66.6135L27.6938 68.0919L27.6682 68.0839C27.5867 68.0302 27.4832 67.9719 27.3577 67.9091C27.2335 67.842 27.0753 67.7713 26.8831 67.6969C26.6923 67.6183 26.4618 67.5319 26.1915 67.4377C25.9269 67.3406 25.6133 67.2352 25.2508 67.1215L20.2996 65.5679ZM19.1609 62.1176C19.1155 62.2627 19.0878 62.418 19.0781 62.5837C19.0654 62.7437 19.0697 62.9091 19.0912 63.0799C19.1097 63.245 19.1487 63.4119 19.2082 63.5805C19.2649 63.7436 19.3404 63.8985 19.4349 64.0453C19.5943 64.1047 19.7757 64.1686 19.979 64.2371C20.1824 64.3056 20.4056 64.378 20.6487 64.4543L24.0007 65.5061C24.0914 65.4408 24.1812 65.3635 24.2701 65.2743C24.3589 65.185 24.4476 65.0816 24.5359 64.9641C24.6214 64.8409 24.703 64.7001 24.7807 64.5418C24.8598 64.3791 24.9315 64.1954 24.9957 63.9906C25.1 63.6578 25.1346 63.3383 25.0994 63.032C25.0643 62.7258 24.9625 62.4454 24.794 62.1911C24.6268 61.9324 24.3965 61.7032 24.1032 61.5033C23.8112 61.2992 23.4605 61.1329 23.0511 61.0045C22.5905 60.86 22.152 60.7645 21.7356 60.7182C21.3149 60.6706 20.9349 60.6873 20.5957 60.7683C20.2535 60.8437 19.9593 60.9904 19.713 61.2083C19.4667 61.4263 19.2827 61.7294 19.1609 62.1176Z" fill="#FFB81C"/>
<path d="M28.6977 55.9729C28.4802 56.419 28.2061 56.8026 27.8754 57.1238C27.5447 57.445 27.1743 57.6847 26.764 57.8427C26.3498 57.9987 25.9027 58.0641 25.4227 58.0388C24.9407 58.0075 24.4426 57.8664 23.9284 57.6154C23.4745 57.3939 23.092 57.1127 22.7808 56.7717C22.4656 56.4288 22.2311 56.0532 22.0772 55.6447C21.9233 55.2363 21.8532 54.814 21.8669 54.3779C21.8826 53.9378 21.9923 53.5087 22.1961 53.0908C22.3979 52.6768 22.6574 52.3283 22.9744 52.0452C23.2875 51.7602 23.6433 51.5557 24.0418 51.4318C24.4384 51.302 24.8737 51.2607 25.3479 51.3081C25.82 51.3494 26.3141 51.4886 26.8302 51.7255C26.6007 52.1757 26.3732 52.6269 26.1478 53.0791C25.9223 53.5313 25.6901 54.0025 25.451 54.4928C25.2805 54.8424 25.116 55.185 24.9573 55.5205C24.8007 55.852 24.6617 56.1524 24.5404 56.4215C24.9699 56.6013 25.3788 56.7213 25.7672 56.7815C26.1576 56.8377 26.5183 56.8321 26.8495 56.7649C27.1786 56.6917 27.472 56.5538 27.7299 56.3513C27.9897 56.1448 28.202 55.8727 28.3666 55.5352C28.4802 55.3021 28.5609 55.0703 28.6086 54.8399C28.6543 54.6034 28.6701 54.3773 28.656 54.1614C28.6419 53.9456 28.6029 53.74 28.539 53.5446C28.4711 53.3473 28.3834 53.1652 28.2758 52.9983L28.3472 52.9436L29.2022 53.9131C29.2089 54.185 29.1789 54.4913 29.1123 54.8319C29.0416 55.1706 28.9034 55.5509 28.6977 55.9729ZM24.6312 54.9808C24.8272 54.5789 25.0232 54.177 25.2191 53.7751C25.413 53.3673 25.5843 52.9956 25.7329 52.6602C25.3658 52.5258 25.0192 52.4412 24.693 52.4064C24.3669 52.3716 24.0692 52.3855 23.7999 52.4481C23.5307 52.5108 23.2919 52.6231 23.0836 52.7851C22.8753 52.9471 22.7085 53.1567 22.5831 53.414C22.4694 53.647 22.4168 53.8875 22.4252 54.1354C22.4316 54.3774 22.4959 54.6177 22.6181 54.8565C22.7404 55.0953 22.9206 55.3275 23.1587 55.5531C23.3927 55.7768 23.6846 55.984 24.0343 56.1745C24.1305 55.9976 24.2276 55.8087 24.3255 55.6077C24.4235 55.4068 24.5254 55.1978 24.6312 54.9808Z" fill="#FFB81C"/>
<path d="M27.5321 48.9764C27.2133 48.7697 26.9321 48.5954 26.6885 48.4534C26.4436 48.3053 26.23 48.1828 26.0478 48.0859C25.868 47.9853 25.7126 47.9086 25.5818 47.8557C25.4533 47.7991 25.3425 47.7565 25.2491 47.728L25.2266 47.7134L26.0688 46.4131L26.0913 46.4277C26.1581 46.5137 26.2461 46.608 26.3553 46.7108C26.467 46.8098 26.6166 46.9282 26.8044 47.0659C26.778 46.8517 26.7572 46.633 26.7419 46.41C26.7266 46.1869 26.7269 45.9686 26.7427 45.7551C26.7585 45.5415 26.7924 45.3371 26.8444 45.1417C26.8989 44.9425 26.9796 44.7604 27.0865 44.5953C27.1521 44.494 27.2149 44.4094 27.2748 44.3417C27.3309 44.2715 27.3878 44.2124 27.4454 44.1646C27.4993 44.1142 27.5533 44.072 27.6074 44.0378C27.6577 44.0012 27.7069 43.9664 27.7548 43.9336L28.6507 44.9061L28.5662 44.9872C28.372 44.9252 28.1861 44.9245 28.0083 44.9851C27.8269 45.0433 27.6669 45.1793 27.5283 45.3932C27.453 45.5096 27.3946 45.6449 27.3532 45.7992C27.3118 45.9536 27.2861 46.1207 27.2761 46.3007C27.2622 46.4782 27.2616 46.6643 27.274 46.8588C27.2827 47.051 27.2995 47.243 27.3243 47.4349C27.4282 47.5129 27.5439 47.5933 27.6714 47.676C27.7989 47.7587 27.934 47.8462 28.0765 47.9386L29.528 48.8797C29.8468 49.0864 30.1287 49.2638 30.3736 49.4119C30.6148 49.5576 30.8265 49.6789 31.0087 49.7758C31.191 49.8726 31.3463 49.9494 31.4747 50.006C31.6032 50.0626 31.7141 50.1052 31.8074 50.1337L31.8299 50.1483L30.9877 51.4486L30.9652 51.434C30.901 51.3604 30.8169 51.2765 30.7128 51.1824C30.6111 51.0845 30.4776 50.974 30.3124 50.8509C30.1495 50.724 29.9524 50.5802 29.721 50.4195C29.4882 50.2526 29.2125 50.0658 28.8936 49.8591L27.5321 48.9764Z" fill="#FFB81C"/>
<path d="M30.8317 44.1421C30.5301 43.9111 30.2633 43.7153 30.0316 43.5547C29.799 43.3879 29.5957 43.249 29.4216 43.1382C29.2501 43.0238 29.1013 42.9352 28.975 42.8722C28.8514 42.8057 28.7441 42.7546 28.6533 42.7188L28.632 42.7025L29.5733 41.4722L29.5946 41.4885C29.6528 41.5669 29.7302 41.6571 29.8266 41.7591C29.923 41.8611 30.0475 41.9817 30.1998 42.1209C30.3522 42.2601 30.5393 42.4203 30.761 42.6013C30.9792 42.7796 31.2391 42.9843 31.5407 43.2153L32.8291 44.2019C33.1307 44.4329 33.3979 44.6318 33.6304 44.7987C33.8595 44.9628 34.061 45.1003 34.2352 45.2111C34.4093 45.3219 34.5582 45.4106 34.6818 45.4771C34.8054 45.5436 34.9126 45.5947 35.0034 45.6305L35.0247 45.6468L34.0834 46.8771L34.0621 46.8608C34.0039 46.7824 33.9266 46.6923 33.8301 46.5902C33.7364 46.4847 33.612 46.3641 33.4569 46.2284C33.3045 46.0892 33.1192 45.9304 32.901 45.7521C32.6821 45.5675 32.4217 45.3597 32.12 45.1287L30.8317 44.1421ZM27.0515 41.4247C26.9735 41.3649 26.9116 41.2949 26.8659 41.2149C26.8193 41.1286 26.7902 41.0415 26.7786 40.9538C26.7634 40.8633 26.7674 40.7735 26.7906 40.6843C26.813 40.5888 26.8554 40.5002 26.9179 40.4185C26.9804 40.3369 27.0534 40.2745 27.137 40.2315C27.2197 40.1823 27.3067 40.1532 27.398 40.1442C27.4884 40.129 27.58 40.1344 27.6727 40.1603C27.7646 40.18 27.8496 40.2197 27.9276 40.2795C28.0909 40.4045 28.1854 40.5642 28.2112 40.7585C28.237 40.9529 28.1875 41.1317 28.0625 41.295C28 41.3767 27.9274 41.4422 27.8447 41.4915C27.7611 41.5345 27.6755 41.5618 27.5878 41.5735C27.4965 41.5824 27.4049 41.577 27.3131 41.5573C27.2203 41.5314 27.1332 41.4872 27.0515 41.4247Z" fill="#FFB81C"/>
<path d="M38.4813 41.8343C38.1411 42.1955 37.7654 42.4803 37.3542 42.6886C36.943 42.8969 36.5181 43.0155 36.0795 43.0443C35.6376 43.0701 35.1913 42.9995 34.7405 42.8325C34.2896 42.6593 33.8559 42.3764 33.4396 41.9838C33.0721 41.6373 32.7904 41.2549 32.5946 40.8369C32.3956 40.4157 32.2833 39.9873 32.2578 39.5515C32.2322 39.1157 32.2908 38.6917 32.4335 38.2794C32.5793 37.8639 32.8116 37.4869 33.1304 37.1485C33.4461 36.8133 33.7974 36.5577 34.1843 36.3818C34.5678 36.2027 34.9683 36.1134 35.3857 36.1136C35.8029 36.1076 36.2308 36.1977 36.6695 36.384C37.1079 36.5639 37.5383 36.8438 37.9606 37.2235C37.6077 37.5851 37.2564 37.9482 36.9068 38.3129C36.5572 38.6775 36.1954 39.0583 35.8214 39.4553C35.5547 39.7385 35.2958 40.0166 35.0446 40.2897C34.7965 40.5597 34.5745 40.8051 34.3787 41.026C34.7354 41.3254 35.0902 41.5616 35.4431 41.7346C35.7991 41.9044 36.1452 42.0064 36.4813 42.0407C36.8173 42.0687 37.1385 42.0244 37.4449 41.9078C37.7543 41.7879 38.0378 41.5913 38.2953 41.3179C38.4731 41.1292 38.619 40.9319 38.7331 40.7261C38.8469 40.5139 38.9292 40.3027 38.9799 40.0924C39.0306 39.8821 39.0544 39.6742 39.0515 39.4687C39.0453 39.2601 39.0157 39.0601 38.9626 38.8687L39.0471 38.8378L39.5752 40.0178C39.5008 40.2794 39.3811 40.5629 39.2163 40.8683C39.0482 41.1706 38.8032 41.4926 38.4813 41.8343ZM34.8937 39.6774C35.2002 39.352 35.5067 39.0266 35.8133 38.7012C36.1196 38.3694 36.3936 38.0655 36.6352 37.7895C36.3246 37.552 36.0188 37.3681 35.7178 37.2378C35.4167 37.1076 35.1283 37.0323 34.8527 37.012C34.577 36.9917 34.3156 37.0279 34.0686 37.1206C33.8216 37.2134 33.6 37.3639 33.4038 37.5721C33.226 37.7609 33.1043 37.9748 33.0386 38.214C32.9728 38.4469 32.9628 38.6955 33.0086 38.9599C33.0543 39.2242 33.1573 39.4995 33.3176 39.7858C33.4746 40.069 33.6917 40.3536 33.9689 40.6395C34.1134 40.4992 34.2622 40.3477 34.4155 40.185C34.5687 40.0223 34.7281 39.8531 34.8937 39.6774Z" fill="#FFB81C"/>
<path d="M42.9794 31.5792C42.6133 31.1163 42.2514 30.8497 41.8937 30.7794C41.536 30.709 41.2012 30.7974 40.8892 31.0443C40.7771 31.1331 40.6703 31.2575 40.569 31.4176C40.4648 31.5742 40.3711 31.7511 40.2876 31.9483C40.2015 32.142 40.1264 32.3497 40.0624 32.5714C39.9984 32.7931 39.9487 33.015 39.9133 33.2368L40.4478 33.9342L41.4546 35.207C41.6903 35.5051 41.9004 35.7635 42.085 35.9824C42.2667 36.1977 42.4284 36.3805 42.57 36.5307C42.7116 36.6809 42.8341 36.8034 42.9376 36.8983C43.0411 36.9931 43.1325 37.069 43.2118 37.126L43.2284 37.147L42.014 38.1085L41.9974 38.0874C41.9602 37.9972 41.9073 37.8907 41.8389 37.7682C41.7739 37.6428 41.6829 37.4953 41.5658 37.3257C41.4523 37.1533 41.3116 36.9539 41.1439 36.7274C40.9769 36.4947 40.7756 36.2293 40.5398 35.9312L39.533 34.6584C39.2973 34.3604 39.0868 34.105 38.9016 33.8925C38.717 33.6736 38.554 33.4891 38.4124 33.3389C38.2743 33.1859 38.1517 33.0634 38.0447 32.9713C37.9412 32.8765 37.8498 32.8006 37.7706 32.7436L37.7539 32.7226L38.9683 31.7611L38.985 31.7821C39.0263 31.892 39.0922 32.0222 39.1829 32.1729C39.2743 32.3172 39.3972 32.505 39.5516 32.7363C39.601 32.5033 39.6609 32.262 39.7313 32.0124C39.8053 31.76 39.8955 31.5174 40.0022 31.2847C40.106 31.0485 40.2287 30.8289 40.37 30.6257C40.5086 30.419 40.6673 30.2449 40.8461 30.1034C41.1194 29.887 41.3882 29.7512 41.6523 29.696C41.92 29.6381 42.1744 29.6391 42.4156 29.699C42.6603 29.7562 42.888 29.8639 43.0986 30.0221C43.31 30.1741 43.4962 30.3518 43.657 30.5551L45.0715 32.3434C45.3072 32.6415 45.5174 32.8999 45.7019 33.1188C45.8836 33.3341 46.0453 33.5169 46.1869 33.6671C46.3285 33.8173 46.4511 33.9398 46.5546 34.0346C46.6581 34.1295 46.7494 34.2054 46.8287 34.2624L46.8454 34.2834L45.6309 35.2449L45.6143 35.2238C45.5771 35.1336 45.5243 35.0271 45.4558 34.9046C45.3909 34.7792 45.2998 34.6317 45.1828 34.4621C45.0692 34.2897 44.9286 34.0903 44.7609 33.8638C44.5939 33.6311 44.3925 33.3657 44.1568 33.0676L42.9794 31.5792Z" fill="#FFB81C"/>
<path d="M52.9836 28.8775L53.1522 30.1594C53.0746 30.2663 52.9794 30.3783 52.8664 30.4955C52.7534 30.6126 52.6313 30.7273 52.4999 30.8395C52.3725 30.9495 52.2387 31.0528 52.0984 31.1496C51.9604 31.2502 51.8256 31.3386 51.6941 31.4148C51.2261 31.6859 50.7537 31.8691 50.2769 31.9644C49.8018 32.0537 49.343 32.0507 48.9006 31.9556C48.4621 31.8583 48.0508 31.6651 47.6666 31.3761C47.2825 31.0871 46.9482 30.6969 46.6638 30.2054C46.4107 29.7682 46.2599 29.3156 46.2112 28.8478C46.1642 28.3738 46.21 27.9132 46.3489 27.4659C46.4916 27.0164 46.7212 26.5967 47.0377 26.2066C47.3543 25.8166 47.7504 25.4837 48.2262 25.2082C48.4428 25.0827 48.686 24.9676 48.956 24.8629C49.2237 24.7543 49.471 24.6731 49.698 24.6191L50.681 25.3672L50.6349 25.4482C50.4688 25.3843 50.29 25.3431 50.0987 25.3248C49.9089 25.3004 49.7127 25.3004 49.5099 25.3248C49.311 25.347 49.1114 25.3903 48.9111 25.4547C48.7108 25.5191 48.5178 25.605 48.3322 25.7126C48.0305 25.8873 47.7872 26.1006 47.6024 26.3523C47.4153 26.6002 47.291 26.8763 47.2295 27.1806C47.1681 27.4849 47.1721 27.8132 47.2418 28.1655C47.313 28.5118 47.4562 28.8706 47.6712 29.2421C47.913 29.6601 48.1845 30.0221 48.4856 30.3282C48.7906 30.6321 49.1131 30.8637 49.4533 31.0232C49.7951 31.1766 50.1509 31.2469 50.5206 31.2343C50.8919 31.2155 51.269 31.0952 51.652 30.8734C51.8299 30.7704 51.9935 30.6471 52.143 30.5037C52.294 30.3542 52.4234 30.194 52.5311 30.0232C52.6404 29.8462 52.7272 29.6615 52.7915 29.4693C52.8559 29.277 52.8899 29.0816 52.8938 28.883L52.9836 28.8775Z" fill="#FFB81C"/>
<path d="M58.8637 27.9588C58.403 28.1429 57.9423 28.2428 57.4817 28.2583C57.0211 28.2739 56.5858 28.2022 56.1759 28.0434C55.7643 27.8805 55.3893 27.6283 55.0508 27.2869C54.7149 26.9396 54.4408 26.5002 54.2286 25.9687C54.0412 25.4995 53.9468 25.034 53.9454 24.5723C53.9423 24.1065 54.021 23.6706 54.1813 23.2647C54.3417 22.8587 54.5735 22.4989 54.8765 22.1851C55.1838 21.8698 55.5532 21.6258 55.9849 21.4533C56.4124 21.2825 56.8386 21.1988 57.2635 21.2023C57.6868 21.2017 58.0876 21.2895 58.466 21.4657C58.8469 21.6361 59.197 21.8983 59.5164 22.2522C59.8382 22.6002 60.1106 23.0355 60.3336 23.5579C59.8613 23.737 59.3898 23.9182 58.9191 24.1015C58.4485 24.2847 57.9599 24.4776 57.4536 24.6799C57.0925 24.8242 56.7405 24.9673 56.3977 25.1091C56.059 25.2493 55.7543 25.3782 55.4837 25.496C55.681 25.9179 55.9033 26.2817 56.1504 26.5874C56.4018 26.8914 56.6726 27.1299 56.963 27.3027C57.2559 27.4698 57.5659 27.565 57.8928 27.5884C58.224 27.6102 58.5639 27.5514 58.9125 27.4121C59.1533 27.3159 59.3687 27.1985 59.5588 27.0599C59.7514 26.9155 59.915 26.7586 60.0495 26.5893C60.1841 26.42 60.2933 26.2415 60.3772 26.0539C60.4595 25.8621 60.5168 25.6683 60.5493 25.4723L60.6389 25.4799L60.6209 26.7727C60.4432 26.9785 60.2152 27.1852 59.9371 27.3926C59.6573 27.5959 59.2995 27.7847 58.8637 27.9588ZM56.5187 24.4901C56.9338 24.3243 57.3488 24.1584 57.7639 23.9925C58.1814 23.8209 58.5579 23.6608 58.8933 23.5123C58.7117 23.166 58.5118 22.8703 58.2937 22.6252C58.0755 22.3802 57.8457 22.1903 57.6042 22.0557C57.3628 21.9211 57.1105 21.8437 56.8474 21.8236C56.5844 21.8036 56.32 21.8466 56.0544 21.9528C55.8136 22.049 55.6131 22.1917 55.4528 22.381C55.2951 22.5644 55.1813 22.7856 55.1114 23.0447C55.0416 23.3037 55.019 23.5968 55.0438 23.924C55.0668 24.247 55.1439 24.5966 55.2748 24.9728C55.4649 24.9065 55.6637 24.8318 55.8712 24.7489C56.0788 24.666 56.2946 24.5797 56.5187 24.4901Z" fill="#FFB81C"/>
<path d="M68.2145 17.2799L69.9581 17.8327L69.7682 18.3426L68.0756 17.6923L68.4469 19.4658L67.9054 19.5606L67.644 17.7542L66.2748 18.9539L65.9232 18.5388L67.3626 17.429L65.6309 16.8673L65.8208 16.3574L67.5158 17.0209L67.1488 15.233L67.6903 15.1382L67.945 16.9457L69.3143 15.746L69.6659 16.1611L68.2145 17.2799Z" fill="#FFB81C"/>
</g>
<defs>
<clipPath id="clip0_1604_656">
<rect width="160" height="162" fill="white"/>
</clipPath>
</defs>
</svg>
